<?xml version="1.0" encoding="iso-8859-1"?>
<!-- Generator: Adobe Illustrator 19.0.0, SVG Export Plug-In . SVG Version: 6.00 Build 0)  -->
<svg version="1.1" id="Layer_1" xmlns="http://www.w3.org/2000/svg" xmlns:xlink="http://www.w3.org/1999/xlink" x="0px" y="0px"
	 viewBox="0 0 512 512" style="enable-background:new 0 0 512 512;" xml:space="preserve">
<g>
	<g>
		<path d="M372.951,124.31c-0.784-0.651-1.638-1.23-2.554-1.723c-16.81-11.249-35.304-20.093-55.011-26.052
			c0.017-0.561,0.031-1.12,0.03-1.667c-0.045-25.653-10.119-49.614-28.366-67.468C268.99,9.726,244.95,0,219.339,0
			c-0.06,0-0.121,0-0.181,0c-25.666,0.046-49.779,10.082-67.895,28.26c-18.117,18.179-28.07,42.324-28.024,67.988
			c0.017,9.284,2.59,20.542,7.765,33.904c-41.665,31.796-71.283,79.057-80.555,133.325c0,0.002-0.001,0.005-0.001,0.007
			c-2.02,11.83-3.085,23.99-3.085,36.399C47.362,416.844,140.957,512,256,512c33.128,0,64.468-7.903,92.316-21.932
			c0.845-0.337,1.65-0.75,2.417-1.223c67.556-35.149,113.905-106.655,113.905-188.962
			C464.638,226.951,428.243,162.501,372.951,124.31z M372.197,163.5c16.982,15.059,31.132,33.353,41.522,53.933l-39.602-8.218
			l-10.605-11.766L372.197,163.5z M173.486,50.407c12.201-12.243,28.441-19.003,45.728-19.033c0.042,0,0.082,0,0.123,0
			c17.358,0,33.611,6.55,45.772,18.451c12.179,11.918,18.904,27.934,18.934,45.1c0.044,24.748-35.665,83.062-64.558,123.643
			c-29.004-40.061-64.829-97.65-64.873-122.374C154.583,78.91,161.285,62.65,173.486,50.407z M140.279,436.689
			c-35.947-31.657-59.323-77.762-61.381-129.374l30.007,38.365c1.739,2.223,4.045,3.936,6.675,4.958l35.347,13.731L140.279,436.689z
			 M327.338,465.327c-21.839,9.827-45.97,15.299-71.335,15.299c-31.616,0-61.318-8.491-87.044-23.34l14.831-100.723
			c1.067-7.241-3.016-14.257-9.839-16.907l-42.989-16.7L82.8,261.38c8.728-40.852,31.039-76.584,61.855-102.019
			c5.897,11.058,13.02,23.136,21.407,36.295c8.029,12.597,16,24.255,22.763,33.826c-7.396,1.264-13.032,7.689-13.032,15.445
			c0,8.663,7.023,15.687,15.687,15.687h28.115c0.022,0,0.044,0,0.066,0h27.518c8.663,0,15.687-7.023,15.687-15.687
			c0-7.681-5.525-14.062-12.815-15.412c6.788-9.758,14.834-21.706,22.931-34.618c16.887-26.926,28.64-49.359,35.427-67.691
			c12.852,4.064,25.08,9.586,36.503,16.367l-13.878,54.245c-1.302,5.088,0.028,10.489,3.545,14.39l19.671,21.826
			c2.234,2.479,5.199,4.18,8.465,4.858l62.594,12.989c0.556,0.115,1.112,0.197,1.664,0.252c1.09,4.052,2.048,8.159,2.862,12.318
			l-47.218-14.094c-2.77-0.827-5.714-0.871-8.51-0.131l-70.052,18.584c-4.902,1.3-8.872,4.89-10.659,9.636l-22.286,59.209
			c-1.154,3.064-1.319,6.413-0.474,9.576l13.939,52.157c1.586,5.935,6.491,10.397,12.548,11.418l32.725,5.513L327.338,465.327z
			 M359.724,446.361l2.174-42.387c0.408-7.952-5.207-14.95-13.06-16.273l-36.556-6.16l-10.035-37.549l17.666-46.932l57.967-15.377
			l55.364,16.526c0.005,0.558,0.021,1.115,0.021,1.674C433.264,360.084,404.243,413.495,359.724,446.361z"/>
	</g>
</g>
<g>
	<g>
		<circle cx="219.314" cy="99.58" r="20.718"/>
	</g>
</g>
<g>
</g>
<g>
</g>
<g>
</g>
<g>
</g>
<g>
</g>
<g>
</g>
<g>
</g>
<g>
</g>
<g>
</g>
<g>
</g>
<g>
</g>
<g>
</g>
<g>
</g>
<g>
</g>
<g>
</g>
</svg>
