<?xml version="1.0" encoding="UTF-8" standalone="no"?>
<svg
   xmlns:dc="http://purl.org/dc/elements/1.1/"
   xmlns:cc="http://creativecommons.org/ns#"
   xmlns:rdf="http://www.w3.org/1999/02/22-rdf-syntax-ns#"
   xmlns:svg="http://www.w3.org/2000/svg"
   xmlns="http://www.w3.org/2000/svg"
   xmlns:sodipodi="http://sodipodi.sourceforge.net/DTD/sodipodi-0.dtd"
   xmlns:inkscape="http://www.inkscape.org/namespaces/inkscape"
   width="300px"
   height="160px"
   viewBox="0 0 300 160"
   version="1.1"
   id="SVGRoot"
   sodipodi:docname="logo-AA-1.svg"
   inkscape:version="1.0.2-2 (e86c870879, 2021-01-15)">
  <defs
     id="defs5482" />
  <sodipodi:namedview
     id="base"
     pagecolor="#ffffff"
     bordercolor="#666666"
     borderopacity="1.0"
     inkscape:pageopacity="0.0"
     inkscape:pageshadow="2"
     inkscape:zoom="1.914786"
     inkscape:cx="149.40493"
     inkscape:cy="99.252886"
     inkscape:document-units="px"
     inkscape:current-layer="layer1"
     inkscape:document-rotation="0"
     showgrid="false"
     inkscape:window-width="1267"
     inkscape:window-height="1198"
     inkscape:window-x="260"
     inkscape:window-y="163"
     inkscape:window-maximized="0" />
  <metadata
     id="metadata5485">
    <rdf:RDF>
      <cc:Work
         rdf:about="">
        <dc:format>image/svg+xml</dc:format>
        <dc:type
           rdf:resource="http://purl.org/dc/dcmitype/StillImage" />
        <dc:title></dc:title>
      </cc:Work>
    </rdf:RDF>
  </metadata>
  <g
     inkscape:label="Layer 1"
     inkscape:groupmode="layer"
     id="layer1">
    <g
       id="g4168"
       transform="matrix(0.99244051,0,0,0.99244051,2.503161,-0.53340216)">
      <g
         id="g4237">
        <path
           id="path4-3-8-0-6-7-8"
           style="fill:#000000;fill-opacity:1;stroke:none;stroke-width:8.73131;stroke-miterlimit:4;stroke-dasharray:none;stroke-opacity:1"
           d="M 208.6582,7.1601562 C 98.505161,7.1601562 21.057609,86.361736 3.9179688,178.11133 9.0018964,172.645 16.250948,169.2207 24.300781,169.2207 h 41.759766 c 15.369543,0 27.839844,12.4703 27.839844,27.83985 v 129.91601 c 0,15.36955 -12.470301,27.83789 -27.839844,27.83789 H 24.300781 c -8.727717,0 -16.5159425,-4.02286 -21.6210935,-10.3125 C 8.926099,385.25478 27.82081,425.26562 61.636719,459.08203 L 208.6543,606.09961 355.67383,459.08203 c 34.93802,-34.93861 53.95042,-76.48873 59.53906,-118.63867 -4.74783,8.56733 -13.87891,14.37109 -24.36328,14.37109 H 349.0918 c -15.36955,0 -27.83985,-12.46834 -27.83985,-27.83789 V 197.06055 c 0,-15.36955 12.4703,-27.83985 27.83985,-27.83985 h 41.75781 c 9.65816,0 18.16885,4.927 23.16211,12.40039 C 398.21212,88.392049 320.21273,7.1601562 208.6582,7.1601562 Z M 126.37891,169.2207 h 162.39453 c 10.1497,0 18.56054,8.41085 18.56054,18.56055 v 18.55859 c 0,10.1497 -8.41084,18.5586 -18.56054,18.5586 h -23.19922 c -5.21985,0 -9.2793,4.0614 -9.2793,9.28125 v 92.79687 c 0,15.36955 -12.4703,27.83789 -27.83984,27.83789 h -41.75781 c -15.36955,0 -27.83985,-12.46834 -27.83985,-27.83789 v -92.79687 c 0,-5.21985 -4.05945,-9.28125 -9.2793,-9.28125 h -23.19921 c -10.14971,0 -18.56055,-8.4089 -18.56055,-18.5586 v -18.55859 c 0,-10.1497 8.41084,-18.56055 18.56055,-18.56055 z"
           transform="scale(0.26458333)" />
      </g>
      <g
         aria-label="ITINAR  "
         id="text940"
         style="font-size:76.7269px;line-height:1.25;font-family:Rahovets;-inkscape-font-specification:Rahovets;stroke-width:1.91818">
        <path
           style="color:#000000;font-style:normal;font-variant:normal;font-weight:normal;font-stretch:normal;font-size:medium;line-height:1.25;font-family:Rahovets;-inkscape-font-specification:Rahovets;font-variant-ligatures:normal;font-variant-position:normal;font-variant-caps:normal;font-variant-numeric:normal;font-variant-alternates:normal;font-variant-east-asian:normal;font-feature-settings:normal;font-variation-settings:normal;text-indent:0;text-align:start;text-decoration:none;text-decoration-line:none;text-decoration-style:solid;text-decoration-color:#000000;letter-spacing:normal;word-spacing:normal;text-transform:none;writing-mode:lr-tb;direction:ltr;text-orientation:mixed;dominant-baseline:auto;baseline-shift:baseline;text-anchor:start;white-space:normal;shape-padding:0;shape-margin:0;inline-size:0;clip-rule:nonzero;display:inline;overflow:visible;visibility:visible;opacity:1;isolation:auto;mix-blend-mode:normal;color-interpolation:sRGB;color-interpolation-filters:linearRGB;solid-color:#000000;solid-opacity:1;vector-effect:none;fill:#000000;fill-opacity:1;fill-rule:nonzero;stroke:none;stroke-width:1.91818;stroke-linecap:butt;stroke-linejoin:miter;stroke-miterlimit:4;stroke-dasharray:none;stroke-dashoffset:0;stroke-opacity:1;color-rendering:auto;image-rendering:auto;shape-rendering:auto;text-rendering:auto;enable-background:accumulate;stop-color:#000000;stop-opacity:1"
           d="m 164.79399,44.773028 h -41.73943 c -4.06653,0 -7.36579,3.299256 -7.36579,7.365782 v 34.37365 c 0,4.066526 3.29926,7.365782 7.36579,7.365782 h 11.04867 c 4.06652,0 7.36578,-3.299256 7.36578,-7.365782 V 52.13881 c 0,-1.381084 1.07418,-2.455261 2.45526,-2.455261 1.38109,0 2.45526,1.074177 2.45526,2.455261 v 34.37365 c 0,4.066526 3.29926,7.365782 7.36578,7.365782 h 11.04868 c 4.06652,0 7.36578,-3.299256 7.36578,-7.365782 V 52.13881 c 0,-4.066526 -3.29926,-7.365782 -7.36578,-7.365782 z"
           id="path4204" />
        <path
           style="color:#000000;font-style:normal;font-variant:normal;font-weight:normal;font-stretch:normal;font-size:medium;line-height:1.25;font-family:Rahovets;-inkscape-font-specification:Rahovets;font-variant-ligatures:normal;font-variant-position:normal;font-variant-caps:normal;font-variant-numeric:normal;font-variant-alternates:normal;font-variant-east-asian:normal;font-feature-settings:normal;font-variation-settings:normal;text-indent:0;text-align:start;text-decoration:none;text-decoration-line:none;text-decoration-style:solid;text-decoration-color:#000000;letter-spacing:normal;word-spacing:normal;text-transform:none;writing-mode:lr-tb;direction:ltr;text-orientation:mixed;dominant-baseline:auto;baseline-shift:baseline;text-anchor:start;white-space:normal;shape-padding:0;shape-margin:0;inline-size:0;clip-rule:nonzero;display:inline;overflow:visible;visibility:visible;opacity:1;isolation:auto;mix-blend-mode:normal;color-interpolation:sRGB;color-interpolation-filters:linearRGB;solid-color:#000000;solid-opacity:1;vector-effect:none;fill:#000000;fill-opacity:1;fill-rule:nonzero;stroke:none;stroke-width:1.91818;stroke-linecap:butt;stroke-linejoin:miter;stroke-miterlimit:4;stroke-dasharray:none;stroke-dashoffset:0;stroke-opacity:1;color-rendering:auto;image-rendering:auto;shape-rendering:auto;text-rendering:auto;enable-background:accumulate;stop-color:#000000;stop-opacity:1"
           d="m 226.17544,44.773028 h -41.73943 c -4.06653,0 -7.36578,3.299256 -7.36578,7.365782 v 34.37365 c 0,4.066526 3.29925,7.365782 7.36578,7.365782 h 11.04867 c 4.06653,0 7.36579,-3.299256 7.36579,-7.365782 V 74.236157 c 0,-1.381085 1.07417,-2.455261 2.45526,-2.455261 1.38108,0 2.45526,1.074176 2.45526,2.455261 V 86.51246 c 0,4.066526 3.29925,7.365782 7.36578,7.365782 h 11.04867 c 4.06653,0 7.36578,-3.299256 7.36578,-7.365782 V 52.13881 c 0,-4.066526 -3.29925,-7.365782 -7.36578,-7.365782 z m -18.41445,19.642086 c 0,1.381084 -1.07418,2.45526 -2.45526,2.45526 -1.38109,0 -2.45526,-1.074176 -2.45526,-2.45526 V 52.13881 c 0,-1.381084 1.07417,-2.455261 2.45526,-2.455261 1.38108,0 2.45526,1.074177 2.45526,2.455261 z"
           id="path4206" />
        <path
           style="color:#000000;font-style:normal;font-variant:normal;font-weight:normal;font-stretch:normal;font-size:medium;line-height:1.25;font-family:Rahovets;-inkscape-font-specification:Rahovets;font-variant-ligatures:normal;font-variant-position:normal;font-variant-caps:normal;font-variant-numeric:normal;font-variant-alternates:normal;font-variant-east-asian:normal;font-feature-settings:normal;font-variation-settings:normal;text-indent:0;text-align:start;text-decoration:none;text-decoration-line:none;text-decoration-style:solid;text-decoration-color:#000000;letter-spacing:normal;word-spacing:normal;text-transform:none;writing-mode:lr-tb;direction:ltr;text-orientation:mixed;dominant-baseline:auto;baseline-shift:baseline;text-anchor:start;white-space:normal;shape-padding:0;shape-margin:0;inline-size:0;clip-rule:nonzero;display:inline;overflow:visible;visibility:visible;opacity:1;isolation:auto;mix-blend-mode:normal;color-interpolation:sRGB;color-interpolation-filters:linearRGB;solid-color:#000000;solid-opacity:1;vector-effect:none;fill:#000000;fill-opacity:1;fill-rule:nonzero;stroke:none;stroke-width:1.91818;stroke-linecap:butt;stroke-linejoin:miter;stroke-miterlimit:4;stroke-dasharray:none;stroke-dashoffset:0;stroke-opacity:1;color-rendering:auto;image-rendering:auto;shape-rendering:auto;text-rendering:auto;enable-background:accumulate;stop-color:#000000;stop-opacity:1"
           d="m 295.07615,83.443384 -5.29416,-11.662488 h 0.23018 c 2.68544,0 4.91052,-2.22508 4.91052,-4.910522 V 52.13881 c 0,-4.066526 -3.29925,-7.365782 -7.36578,-7.365782 h -41.73943 c -4.06653,0 -7.36578,3.299256 -7.36578,7.365782 v 34.37365 c 0,4.066526 3.29925,7.365782 7.36578,7.365782 h 11.04867 c 4.06653,0 7.36579,-3.299256 7.36579,-7.365782 V 72.241257 l 7.82614,17.340279 c 1.22763,2.608715 3.83634,4.296706 6.75197,4.296706 h 9.59086 c 4.21998,0 7.36578,-3.45271 7.36578,-7.365782 0,-0.997449 -0.23018,-2.071626 -0.69054,-3.069076 z m -25.93369,-19.02827 c 0,1.381084 -1.07418,2.45526 -2.45526,2.45526 -1.38109,0 -2.45526,-1.074176 -2.45526,-2.45526 V 52.13881 c 0,-1.381084 1.07417,-2.455261 2.45526,-2.455261 1.38108,0 2.45526,1.074177 2.45526,2.455261 z"
           id="path4208" />
      </g>
    </g>
  </g>
</svg>
